# xmcd
#
# Track frame offsets:
#	150
#	18290
#	39005
#	54140
#	71795
#	94369
#	110534
#	133767
#	143895
#	159852
#	178144
#	204925
#	217633
#
# Disc length: 3086 seconds
# Revision: 0
# Processed by: cddbd v1.5.2PL0 Copyright (c) Steve Scherf et al.
# Submitted via: dBpowerAMP V12.0
#
DISCID=a80c0c0d
DTITLE=Eric Bogle - Other People's Children
DYEAR=1900
DGENRE=
TTITLE0=Tamborine Mountain
TTITLE1=Hallowed Ground
TTITLE2=True Believers
TTITLE3=The Last of the Old Timers
TTITLE4=The Promise
TTITLE5=Tired
TTITLE6=Other People's Children
TTITLE7=A Good Man
TTITLE8=The Demon
TTITLE9=The Last Rodeo
TTITLE10=Thou Shalt Not
TTITLE11=To an Athelete Dying Young
TTITLE12=While I Am Here
EXTD=
EXTT0=
EXTT1=
EXTT2=
EXTT3=
EXTT4=
EXTT5=
EXTT6=
EXTT7=
EXTT8=
EXTT9=
EXTT10=
EXTT11=
EXTT12=
PLAYORDER=
